<svg width="40" height="40" viewBox="0 0 40 40" fill="none" xmlns="http://www.w3.org/2000/svg">
<rect width="40" height="40" rx="4" fill="#FBEFE4"/>
<g clip-path="url(#clip0_252_11452)">
<path d="M31.4437 9.5L21.1455 17.1199L23.0605 12.6293L31.4437 9.5Z" fill="#E17726"/>
<path d="M8.58032 9.50879L16.941 12.6296L18.7594 17.1792L8.58032 9.50879Z" fill="#E27625"/>
<path d="M27.2994 25.7051L31.851 25.7917L30.2603 31.1957L24.7063 29.6665L27.2994 25.7051Z" fill="#E27625"/>
<path d="M12.7005 25.7051L15.2839 29.6665L9.73926 31.1958L8.1582 25.7917L12.7005 25.7051Z" fill="#E27625"/>
<path d="M18.5123 16.0205L18.6984 22.0283L13.1323 21.7751L14.7155 19.3866L14.7356 19.3635L18.5123 16.0205Z" fill="#E27625"/>
<path d="M21.43 15.9531L25.2644 19.3634L25.2842 19.3863L26.8675 21.7748L21.3027 22.028L21.43 15.9531Z" fill="#E27625"/>
<path d="M15.4468 25.7227L18.486 28.0907L14.9556 29.7952L15.4468 25.7227Z" fill="#E27625"/>
<path d="M24.5537 25.7227L25.0347 29.7956L21.5142 28.0909L24.5537 25.7227Z" fill="#E27625"/>
<path d="M21.5918 27.8672L25.1643 29.5971L21.8412 31.1764L21.8757 30.1326L21.5918 27.8672Z" fill="#D5BFB2"/>
<path d="M18.4075 27.8682L18.1348 30.1157L18.1571 31.1754L14.8262 29.5973L18.4075 27.8682Z" fill="#D5BFB2"/>
<path d="M17.3755 22.8115L18.3091 24.7735L15.1306 23.8424L17.3755 22.8115Z" fill="#233447"/>
<path d="M22.6242 22.8125L24.8797 23.8432L21.6909 24.774L22.6242 22.8125Z" fill="#233447"/>
<path d="M15.6901 25.7031L15.1763 29.9256L12.4226 25.7954L15.6901 25.7031Z" fill="#CC6228"/>
<path d="M24.3101 25.7031L27.5776 25.7954L24.8136 29.9257L24.3101 25.7031Z" fill="#CC6228"/>
<path d="M26.9479 21.5361L24.5699 23.9597L22.7365 23.1218L21.8587 24.9672L21.2832 21.7939L26.9479 21.5361Z" fill="#CC6228"/>
<path d="M13.0508 21.5361L18.7165 21.7939L18.141 24.9672L17.263 23.1221L15.4393 23.9597L13.0508 21.5361Z" fill="#CC6228"/>
<path d="M12.8906 21.0391L15.5811 23.7691L15.6743 26.4643L12.8906 21.0391Z" fill="#E27525"/>
<path d="M27.1124 21.0342L24.3237 26.4692L24.4287 23.7691L27.1124 21.0342Z" fill="#E27525"/>
<path d="M18.5851 21.2051L18.6933 21.8866L18.9609 23.5845L18.7889 28.7994L17.9756 24.6102L17.9753 24.5669L18.5851 21.2051Z" fill="#E27525"/>
<path d="M21.4135 21.1963L22.0249 24.5675L22.0246 24.6109L21.2093 28.8105L21.177 27.7601L21.0498 23.5543L21.4135 21.1963Z" fill="#E27525"/>
<path d="M24.6675 23.6611L24.5765 26.0028L21.7383 28.2141L21.1646 27.8087L21.8077 24.496L24.6675 23.6611Z" fill="#F5841F"/>
<path d="M15.342 23.6611L18.192 24.4961L18.8351 27.8087L18.2614 28.2141L15.423 26.0026L15.342 23.6611Z" fill="#F5841F"/>
<path d="M14.283 29.0801L17.9141 30.8006L17.8987 30.0659L18.2025 29.7992H21.7963L22.1111 30.065L22.0879 30.7992L25.696 29.0844L23.9403 30.5353L21.8173 31.9934H18.1734L16.0518 30.5293L14.283 29.0801Z" fill="#C0AC9D"/>
<path d="M21.3316 27.6387L21.845 28.0013L22.1458 30.4018L21.7104 30.0341H18.2909L17.8638 30.4092L18.1548 28.0015L18.6683 27.6387H21.3316Z" fill="#161616"/>
<path d="M30.7639 9.71094L32 13.4194L31.228 17.1691L31.7778 17.5932L31.0339 18.1607L31.5929 18.5925L30.8527 19.2667L31.3071 19.5958L30.101 21.0045L25.1538 19.5641L25.1109 19.5411L21.5459 16.5338L30.7639 9.71094Z" fill="#763E1A"/>
<path d="M9.23619 9.71094L18.4542 16.5338L14.8892 19.5411L14.8463 19.5641L9.89907 21.0045L8.69293 19.5958L9.14706 19.267L8.40711 18.5925L8.96511 18.1612L8.21013 17.5921L8.78059 17.1677L8 13.4196L9.23619 9.71094Z" fill="#763E1A"/>
<path d="M24.9118 19.249L30.1536 20.7752L31.8566 26.0238L27.3638 26.0238L24.2681 26.0629L26.5194 21.6746L24.9118 19.249Z" fill="#F5841F"/>
<path d="M15.0882 19.249L13.4803 21.6746L15.7319 26.0628L12.6377 26.0238H8.15283L9.84627 20.7752L15.0882 19.249Z" fill="#F5841F"/>
<path d="M23.3172 12.6045L21.851 16.5644L21.5399 21.9138L21.4208 23.5905L21.4114 27.8737H18.5884L18.5793 23.5985L18.4598 21.9123L18.1486 16.5644L16.6826 12.6045H23.3172Z" fill="#F5841F"/>
</g>
<defs>
<clipPath id="clip0_252_11452">
<rect width="24" height="24" fill="white" transform="translate(8 8)"/>
</clipPath>
</defs>
</svg>
